<svg id="visual" viewBox="0 0 900 600" width="900" height="600" xmlns="http://www.w3.org/2000/svg" xmlns:xlink="http://www.w3.org/1999/xlink" version="1.1"><rect x="0" y="0" width="900" height="600" fill="#002233"></rect><path d="M0 363L15 368.7C30 374.3 60 385.7 90 404.3C120 423 150 449 180 456.7C210 464.3 240 453.7 270 439.3C300 425 330 407 360 380.3C390 353.7 420 318.3 450 323.8C480 329.3 510 375.7 540 417C570 458.3 600 494.7 630 469.8C660 445 690 359 720 325C750 291 780 309 810 351.3C840 393.7 870 460.3 885 493.7L900 527L900 601L885 601C870 601 840 601 810 601C780 601 750 601 720 601C690 601 660 601 630 601C600 601 570 601 540 601C510 601 480 601 450 601C420 601 390 601 360 601C330 601 300 601 270 601C240 601 210 601 180 601C150 601 120 601 90 601C60 601 30 601 15 601L0 601Z" fill="#0066FF" stroke-linecap="round" stroke-linejoin="miter"></path></svg>